<?xml version="1.0" standalone="no"?>
<!DOCTYPE svg PUBLIC "-//W3C//DTD SVG 20010904//EN"
 "http://www.w3.org/TR/2001/REC-SVG-20010904/DTD/svg10.dtd">
<svg version="1.0" xmlns="http://www.w3.org/2000/svg"
 width="1280.000000pt" height="640.000000pt" viewBox="0 0 1280.000000 640.000000"
 preserveAspectRatio="xMidYMid meet">
<g transform="translate(0.000000,640.000000) scale(0.100000,-0.100000)"
fill="#000000" stroke="none">
<path d="M4014 4890 c-101 -7 -162 -31 -181 -70 -6 -14 -35 -83 -63 -155 -61
-152 -114 -261 -143 -292 -17 -19 -31 -23 -83 -23 -37 0 -65 -5 -71 -12 -6 -7
-16 -38 -23 -68 -7 -30 -17 -61 -23 -68 -8 -10 -336 -12 -1679 -12 -1232 1
-1673 -2 -1683 -10 -34 -29 -68 -177 -61 -267 4 -37 13 -266 21 -508 16 -468
28 -622 51 -667 8 -15 31 -39 51 -53 50 -34 137 -34 267 0 169 44 1218 395
1907 638 183 65 395 116 604 147 83 12 184 28 226 36 88 16 277 19 331 4 102
-29 198 -135 198 -219 0 -65 -35 -169 -73 -216 -31 -39 -354 -415 -541 -630
-52 -60 -96 -117 -96 -126 0 -30 36 -48 270 -127 314 -108 343 -116 386 -109
65 11 77 39 52 131 -11 41 -10 46 22 102 93 166 324 551 338 562 22 17 81 15
88 -3 5 -11 22 -15 66 -15 50 0 62 4 82 25 l23 25 258 0 c242 0 293 -4 345
-30 12 -6 16 -41 21 -181 4 -96 12 -217 18 -269 6 -52 15 -134 21 -181 24
-207 106 -528 176 -684 22 -52 26 -55 51 -48 16 4 195 48 398 98 427 104 397
86 351 215 -90 248 -194 810 -199 1075 l-2 110 32 10 c47 15 48 21 19 56 -15
17 -25 38 -22 46 4 8 6 100 6 204 l0 189 25 16 c14 9 48 19 76 23 37 4 55 12
63 26 26 48 63 48 71 1 l7 -34 81 25 c45 14 89 31 98 39 31 28 69 10 69 -33 0
-12 5 -34 12 -48 26 -58 -97 -55 1937 -55 l1870 0 20 26 c12 15 21 32 21 38 0
6 4 17 9 25 8 13 12 13 26 1 15 -13 20 -11 36 9 11 13 19 34 19 47 0 42 34 54
150 53 58 0 128 -4 155 -7 l50 -7 5 -90 5 -90 51 -3 c46 -3 52 -1 57 19 5 19
11 21 40 16 47 -7 77 14 77 57 0 41 -15 56 -57 56 -38 0 -46 25 -11 36 12 3
348 3 747 -1 l726 -7 31 -29 c27 -26 32 -28 44 -14 16 19 29 19 52 -2 17 -15
20 -15 41 5 29 28 41 28 59 0 14 -20 15 -20 41 -3 23 15 46 17 171 14 88 -3
149 0 155 6 5 6 11 57 13 115 l3 105 -161 5 c-119 4 -165 9 -178 19 -15 13
-21 12 -46 -2 -25 -15 -30 -16 -43 -2 -19 18 -31 19 -57 3 -15 -9 -24 -9 -44
1 -23 13 -28 11 -58 -14 l-33 -28 -250 6 c-137 4 -468 10 -734 13 -469 7 -484
8 -502 27 -18 20 -19 41 -19 353 0 183 -3 340 -6 349 -12 29 -52 37 -104 20
-38 -13 -62 -32 -117 -93 -140 -157 -269 -314 -297 -363 l-28 -51 -28 27 c-16
16 -47 31 -72 36 -24 4 -180 15 -348 23 -168 9 -393 20 -500 26 -598 31 -925
46 -1300 60 -363 13 -728 29 -975 40 -110 5 -290 13 -400 16 l-201 7 -27 -32
c-16 -19 -27 -45 -27 -61 0 -40 -32 -57 -66 -35 -13 9 -54 25 -90 36 -37 11
-73 23 -80 26 -10 3 -14 -3 -14 -20 0 -31 -27 -60 -47 -53 -8 3 -17 6 -19 6
-2 0 -4 62 -4 138 -1 160 -8 200 -48 255 -43 60 -110 93 -212 106 -667 81
-1429 178 -1535 195 -11 2 -61 0 -111 -4z m6497 -489 c18 -14 23 -31 27 -79 4
-60 5 -61 36 -64 l31 -3 3 -87 c4 -121 -4 -128 -135 -128 -54 0 -135 3 -181 7
-94 7 -109 19 -97 81 5 27 27 57 84 117 42 44 90 96 105 115 49 61 87 73 127
41z m9 -472 c22 -41 -1 -49 -139 -49 -130 0 -155 7 -143 39 10 28 24 31 149
31 113 0 123 -2 133 -21z"/>
</g>
</svg>
