<?xml version="1.0" standalone="no"?>
<!DOCTYPE svg PUBLIC "-//W3C//DTD SVG 20010904//EN"
 "http://www.w3.org/TR/2001/REC-SVG-20010904/DTD/svg10.dtd">
<svg version="1.0" xmlns="http://www.w3.org/2000/svg"
 width="1280.000000pt" height="640.000000pt" viewBox="0 0 1280.000000 640.000000"
 preserveAspectRatio="xMidYMid meet">
<metadata>
Created by potrace 1.15, written by Peter Selinger 2001-2017
</metadata>
<g transform="translate(0.000000,640.000000) scale(0.100000,-0.100000)"
fill="#000000" stroke="none">
<path d="M11130 4720 c-32 -5 -59 -15 -67 -26 -18 -25 -16 -84 5 -125 10 -20
15 -45 12 -59 -5 -22 -13 -26 -60 -32 -30 -4 -293 -12 -585 -18 -981 -19
-1418 -30 -1795 -45 -206 -9 -537 -20 -735 -25 -394 -11 -869 -25 -1379 -40
-340 -10 -454 -17 -471 -30 -5 -4 -98 -11 -205 -14 -107 -4 -198 -10 -202 -12
-4 -3 -8 -18 -8 -35 0 -16 -3 -29 -7 -29 -5 0 -201 -7 -438 -15 -236 -8 -440
-15 -453 -15 -18 0 -27 11 -46 55 -23 50 -28 55 -65 61 -22 3 -42 13 -45 20
-5 12 -55 14 -307 12 -238 -2 -303 0 -307 10 -2 7 -18 34 -35 60 l-32 47 -77
3 c-63 2 -78 0 -78 -12 0 -13 11 -106 25 -205 4 -33 4 -33 -30 -27 -21 4 -35
2 -37 -5 -2 -6 -25 -13 -52 -16 l-49 -6 6 -83 5 -83 -32 -3 -31 -3 8 -52 c8
-50 10 -53 37 -53 20 0 31 -6 35 -21 4 -11 5 -22 3 -24 -1 -1 -37 -10 -78 -19
-47 -11 -186 -67 -376 -151 -165 -73 -321 -136 -346 -140 -43 -6 -52 -4 -120
38 -145 88 -46 95 -810 -57 -1044 -209 -1389 -274 -1768 -336 -74 -12 -136
-24 -138 -25 -2 -2 4 -60 12 -129 32 -254 90 -745 136 -1140 12 -102 35 -179
63 -211 20 -24 30 -26 102 -28 l80 -2 455 219 c456 219 992 473 1515 720 l280
133 130 12 c219 20 319 33 336 42 9 4 35 47 58 95 53 112 75 140 130 175 86
55 274 116 456 149 39 7 108 26 154 42 47 15 88 28 92 28 5 0 -1 -19 -11 -42
-40 -88 -20 -166 57 -222 175 -128 419 -87 564 97 44 55 47 76 21 144 l-18 48
45 1 c25 1 152 16 281 33 380 50 525 69 700 91 138 18 168 25 183 42 9 11 17
26 17 34 0 11 20 14 89 14 82 0 89 -2 94 -21 4 -14 11 -19 24 -16 10 3 56 8
103 12 47 3 130 10 185 15 55 5 156 14 225 20 69 6 172 15 230 20 58 5 211 19
340 30 129 11 280 24 335 30 55 5 199 19 320 30 402 37 628 60 775 80 136 18
273 25 920 50 146 6 366 15 490 20 124 5 342 14 485 20 592 25 597 25 645 50
35 18 48 20 62 11 25 -16 67 -14 192 9 60 11 110 20 112 20 1 0 4 9 7 20 5 19
14 20 126 21 139 2 137 2 147 12 4 4 45 7 90 7 46 0 86 5 89 10 4 6 63 10 146
10 117 0 139 -2 139 -15 0 -19 3 -19 50 5 24 12 59 20 89 20 56 0 61 7 61 78
0 82 33 76 -452 75 -447 -1 -452 0 -88 30 104 9 169 11 177 5 22 -18 36 3 31
47 l-5 42 206 8 c402 14 502 21 512 36 12 19 11 66 -1 90 -13 24 -23 24 -780
8 -621 -14 -665 -11 -676 39 -3 15 -9 39 -14 53 -6 20 -4 31 11 46 41 41 40
131 -1 153 -28 15 -134 20 -200 10z m815 -460 c-165 -14 -475 -21 -475 -10 0
10 114 15 385 17 150 0 165 -1 90 -7z m-5880 -130 c-3 -5 -11 -10 -16 -10 -6
0 -7 5 -4 10 3 6 11 10 16 10 6 0 7 -4 4 -10z m-1512 -809 c33 -37 57 -92 57
-133 0 -30 -120 -142 -185 -174 -53 -25 -71 -29 -150 -29 -84 0 -94 2 -155 36
-110 60 -135 129 -86 235 21 44 30 53 68 66 l44 15 1 -71 c1 -85 23 -146 66
-182 40 -33 46 -18 18 46 -25 58 -28 148 -6 190 17 32 29 34 206 38 l87 2 35
-39z"/>
</g>
</svg>
